<?xml version="1.0" standalone="no"?>
<!DOCTYPE svg PUBLIC "-//W3C//DTD SVG 20010904//EN"
 "http://www.w3.org/TR/2001/REC-SVG-20010904/DTD/svg10.dtd">
<svg version="1.0" xmlns="http://www.w3.org/2000/svg"
 width="401.000000pt" height="401.000000pt" viewBox="0 0 401.000000 401.000000"
 preserveAspectRatio="xMidYMid meet">
<metadata>
Created by potrace 1.11, written by Peter Selinger 2001-2013
</metadata>
<g transform="translate(0.000000,401.000000) scale(0.100000,-0.100000)"
fill="#000000" stroke="none">
<path d="M1444 4003 c3 -4 -7 -12 -23 -19 -19 -8 -33 -23 -37 -38 -3 -14 -10
-26 -14 -26 -12 0 -5 -121 9 -157 7 -18 21 -35 32 -38 10 -4 20 -9 20 -13 1
-4 3 -201 4 -439 1 -278 -2 -430 -8 -426 -6 4 -8 -3 -5 -15 4 -12 3 -22 -2
-22 -4 0 -11 -12 -16 -27 -10 -36 -9 -33 -22 -66 -7 -15 -15 -39 -18 -52 -3
-14 -11 -25 -17 -25 -6 0 -7 -3 -4 -7 4 -3 1 -13 -6 -21 -10 -13 -9 -14 3 -7
11 6 10 3 -2 -11 -10 -11 -19 -29 -21 -40 -2 -10 -9 -32 -15 -47 -7 -16 -12
-33 -12 -38 0 -5 -4 -9 -8 -9 -4 0 -9 -12 -10 -27 -1 -15 -5 -29 -10 -32 -4
-3 -17 -33 -28 -66 -46 -128 -59 -160 -67 -166 -5 -3 -8 -9 -7 -13 4 -15 -12
-66 -21 -66 -6 0 -8 -4 -5 -8 3 -5 -1 -20 -9 -35 -7 -14 -16 -39 -20 -56 -4
-17 -10 -31 -14 -31 -4 0 -8 -6 -8 -12 -1 -22 -8 -43 -16 -49 -5 -3 -10 -15
-12 -25 -2 -10 -4 -21 -6 -24 -1 -3 -3 -9 -3 -15 -1 -5 -8 -21 -16 -35 -7 -14
-13 -26 -12 -27 6 -10 0 -23 -8 -18 -6 4 -7 -1 -3 -10 3 -10 1 -20 -5 -24 -6
-4 -14 -18 -16 -31 -2 -14 -5 -27 -6 -30 -2 -3 -2 -8 -1 -13 0 -4 -3 -7 -9 -7
-6 0 -9 -3 -8 -8 3 -14 -14 -62 -21 -58 -4 3 -7 -3 -8 -12 -1 -9 -4 -26 -6
-37 -3 -11 -6 -24 -6 -28 -1 -5 -6 -5 -11 -2 -7 4 -9 -3 -6 -19 3 -17 -1 -29
-12 -36 -9 -5 -14 -10 -10 -10 9 0 -22 -90 -31 -90 -4 0 -7 -8 -8 -17 -1 -15
-38 -123 -60 -173 -3 -8 -7 -18 -8 -22 -2 -5 -4 -11 -5 -15 -1 -5 -2 -11 -1
-15 0 -5 -3 -8 -7 -8 -4 0 -14 -21 -21 -47 -8 -27 -21 -58 -29 -71 -8 -12 -11
-22 -8 -22 4 0 -3 -18 -14 -40 -11 -23 -18 -45 -15 -50 3 -6 1 -10 -6 -10 -7
0 -9 -3 -6 -7 4 -3 2 -12 -4 -20 -6 -7 -8 -13 -3 -13 5 0 3 -4 -4 -8 -12 -8
-23 -40 -25 -74 -1 -9 -5 -14 -9 -12 -4 3 -9 0 -9 -5 -2 -14 -6 -29 -9 -36 -1
-3 -3 -8 -5 -12 -1 -5 -7 -21 -13 -36 -7 -16 -12 -30 -12 -32 0 -2 -5 -16 -12
-32 -6 -15 -12 -31 -12 -35 -1 -3 -4 -9 -8 -13 -4 -4 -4 -13 -1 -21 3 -8 1
-14 -4 -14 -15 0 -16 -109 -1 -128 11 -13 11 -14 -2 -7 -13 7 -13 6 -2 -7 7
-9 12 -20 11 -24 -2 -17 13 -54 23 -54 5 0 6 -4 3 -10 -3 -5 -1 -10 5 -10 6 0
14 -8 17 -17 6 -16 76 -88 115 -119 26 -21 55 -33 62 -27 3 3 6 2 6 -4 0 -12
57 -37 78 -34 6 1 12 -2 12 -7 0 -5 6 -10 13 -11 38 -7 2186 -6 2221 1 22 5
47 9 54 10 6 1 12 5 12 10 0 4 3 7 8 6 13 -3 56 14 75 30 9 8 17 11 17 6 0 -5
5 -2 10 6 5 8 13 15 17 15 19 0 124 105 117 116 -3 5 1 9 9 9 13 0 18 9 27 48
1 4 6 12 12 19 26 32 18 215 -12 258 -4 6 -15 34 -25 63 -11 28 -22 52 -27 52
-4 0 -5 7 -1 16 3 9 2 19 -3 23 -5 3 -15 24 -23 46 -7 22 -21 58 -31 80 -27
61 -65 169 -62 177 1 5 -3 8 -8 8 -6 0 -10 9 -10 20 0 11 -4 20 -8 20 -8 0
-10 7 -14 50 -1 11 -6 20 -10 20 -4 0 -8 9 -8 20 0 11 -5 20 -11 20 -5 0 -8 4
-4 9 3 5 0 13 -6 16 -5 4 -8 13 -5 20 3 8 1 15 -4 17 -4 2 -10 12 -12 23 -1
11 -7 23 -11 26 -5 3 -9 12 -11 20 -3 23 -58 163 -69 177 -5 6 -6 12 -2 12 4
0 2 7 -5 15 -7 9 -10 18 -7 21 3 4 -1 13 -9 21 -8 8 -12 19 -9 24 4 5 1 9 -6
9 -7 0 -10 3 -7 6 4 3 -6 36 -22 74 -16 38 -26 71 -22 74 3 3 0 6 -7 6 -7 0
-11 6 -8 14 3 8 -1 20 -9 27 -8 7 -13 18 -10 26 3 7 1 13 -4 13 -6 0 -10 9
-10 19 0 11 -7 26 -15 35 -18 18 -20 30 -2 20 6 -4 4 1 -5 12 -9 10 -17 22
-18 26 -1 11 -10 39 -20 63 -5 11 -19 47 -31 80 -13 33 -27 65 -32 72 -5 7 -6
17 -2 23 3 5 0 13 -8 16 -7 2 -14 11 -15 19 -1 8 -3 22 -4 30 -1 8 -6 15 -11
15 -5 0 -7 7 -3 15 3 8 1 15 -4 15 -6 0 -9 3 -8 8 1 7 -4 24 -24 72 -5 14 -9
26 -9 28 1 1 -6 16 -14 32 -9 17 -13 35 -10 40 3 6 2 10 -3 10 -5 0 -13 10
-17 23 -4 12 -8 24 -9 27 -1 3 -8 24 -16 47 -7 24 -17 40 -23 36 -6 -3 -7 -2
-4 4 3 5 0 21 -8 36 -7 14 -11 28 -8 31 3 3 -1 16 -9 28 -22 36 -70 176 -64
187 3 5 1 11 -5 13 -9 3 -9 9 0 25 8 15 8 24 1 28 -8 5 -7 11 1 21 8 10 8 14
0 14 -7 0 -8 8 -1 25 7 18 6 25 -3 25 -8 0 -8 3 2 9 10 7 10 10 1 13 -10 3
-10 9 -1 25 8 15 8 24 1 28 -8 5 -7 11 1 21 8 10 8 14 0 14 -7 0 -8 8 -1 25 7
18 6 25 -3 25 -8 0 -8 3 2 9 10 7 10 10 1 13 -10 3 -10 9 -1 25 8 15 8 24 1
28 -8 5 -7 11 1 21 8 10 8 14 0 14 -7 0 -8 8 -1 25 7 18 6 25 -3 25 -8 0 -8 3
2 9 10 7 10 10 1 13 -10 3 -10 9 -1 25 8 15 8 24 1 28 -8 5 -7 11 1 21 8 10 8
14 0 14 -7 0 -8 8 -1 25 7 18 6 25 -3 25 -8 0 -8 3 2 9 10 7 10 10 1 13 -10 3
-10 9 -1 25 8 15 8 24 1 28 -8 5 -7 11 1 21 8 10 8 14 0 14 -7 0 -8 8 -1 24 6
17 5 26 -3 29 -7 2 0 15 18 33 33 32 58 80 50 95 -4 5 -3 9 2 9 21 0 -3 120
-27 135 -5 3 -8 11 -5 16 4 5 -1 9 -9 9 -9 0 -16 5 -16 11 0 5 -4 8 -9 4 -5
-3 -12 -1 -16 5 -4 6 -198 10 -547 10 -298 0 -538 -3 -534 -7z m904 -684 c0
-475 1 -501 20 -541 20 -45 30 -70 29 -78 0 -3 6 -16 13 -30 8 -14 13 -29 12
-34 -2 -5 2 -12 8 -16 6 -3 12 -15 14 -26 8 -41 11 -49 19 -55 4 -3 9 -16 10
-27 1 -12 5 -22 9 -22 4 0 8 -9 8 -19 0 -11 5 -23 10 -26 6 -4 8 -11 5 -16 -4
-5 -1 -9 5 -9 7 0 10 -7 6 -15 -3 -8 -1 -15 5 -15 6 0 8 -4 4 -9 -3 -5 1 -15
8 -23 8 -7 12 -19 9 -26 -2 -6 2 -12 9 -12 7 0 10 -3 7 -6 -4 -3 0 -20 7 -39
8 -18 11 -35 8 -39 -4 -3 -1 -6 6 -6 8 0 11 -8 8 -19 -3 -12 0 -18 7 -15 7 3
13 -7 14 -22 1 -15 7 -33 13 -40 6 -8 8 -14 4 -14 -4 0 -2 -6 4 -13 6 -8 8
-17 4 -20 -3 -4 -1 -7 5 -7 7 0 12 -9 12 -20 0 -11 4 -20 10 -20 5 0 7 -7 4
-15 -4 -8 -1 -15 7 -15 7 0 10 -3 7 -6 -4 -3 0 -21 8 -40 8 -19 11 -34 7 -34
-5 0 -2 -4 5 -8 7 -5 15 -19 17 -32 2 -13 8 -26 13 -29 4 -3 7 -13 7 -21 0 -8
2 -17 5 -20 3 -3 14 -26 24 -52 17 -46 15 -75 -5 -62 -5 3 -26 8 -47 10 -20 3
-46 8 -57 11 -11 4 -22 8 -25 8 -3 1 -13 5 -22 8 -22 8 -46 16 -56 18 -4 1
-19 10 -34 20 -14 10 -29 19 -32 19 -13 0 -101 66 -147 111 -28 27 -55 49 -60
49 -6 0 -8 4 -4 9 3 5 -6 18 -20 29 -14 11 -25 25 -25 31 0 5 -9 18 -19 28
-11 10 -21 25 -23 33 -2 8 -11 21 -20 28 -10 7 -18 20 -18 28 0 8 -3 14 -8 14
-8 0 -38 61 -34 73 1 4 -5 7 -13 7 -9 0 -19 8 -22 17 -9 23 -49 63 -63 63 -5
0 -10 5 -10 10 0 6 -11 15 -25 22 -13 6 -22 14 -20 19 3 4 -4 10 -15 14 -11 3
-26 12 -33 18 -18 17 -99 57 -115 57 -7 0 -11 4 -8 9 3 5 -9 12 -27 16 -17 4
-39 9 -47 12 -8 2 -25 4 -37 5 -13 0 -23 4 -23 8 0 5 -8 7 -17 6 -10 -2 -30 0
-45 5 -16 4 -28 4 -28 0 0 -5 -11 -6 -25 -3 -21 3 -23 7 -14 23 5 11 6 19 2
19 -4 0 -2 5 5 12 7 7 12 20 12 30 0 10 4 18 8 18 5 0 9 6 9 13 1 21 8 42 16
48 4 3 10 17 12 31 3 14 11 38 19 54 8 15 13 31 10 36 -3 4 -1 8 4 8 7 0 10
177 11 478 0 262 1 489 1 503 l0 26 359 0 358 0 1 -498z m-599 -1530 c12 -8
24 -24 27 -36 4 -13 9 -23 13 -23 4 0 6 -13 3 -30 -2 -18 -9 -27 -15 -23 -6 4
-8 0 -4 -10 6 -17 -39 -61 -53 -52 -5 3 -12 1 -15 -5 -5 -8 -12 -7 -23 2 -13
11 -14 11 -7 -1 6 -11 5 -12 -6 -5 -8 5 -16 9 -19 9 -3 0 -15 7 -27 16 -23 16
-39 61 -34 93 4 26 33 65 49 66 6 0 12 4 12 9 0 13 73 5 99 -10z m-647 -1320
c23 -13 53 -39 44 -39 -3 0 -1 -13 5 -28 7 -20 6 -37 -2 -58 -7 -16 -11 -33
-10 -37 1 -5 -3 -6 -8 -3 -5 4 -11 1 -13 -6 -2 -6 -20 -12 -40 -12 -20 -1 -34
-4 -31 -8 2 -5 -1 -8 -6 -8 -6 0 -11 5 -11 11 0 5 -4 7 -10 4 -5 -3 -10 -1
-10 4 0 6 -6 11 -12 11 -21 0 -48 56 -34 70 8 10 8 11 -2 6 -16 -9 -11 29 6
46 7 7 12 16 12 21 0 30 83 47 122 26z"/>
<path d="M1785 3581 c-16 -10 -37 -31 -45 -47 -8 -16 -19 -32 -25 -36 -7 -5
-6 -8 0 -8 6 0 12 -12 13 -27 1 -15 7 -30 13 -34 6 -3 10 -9 9 -13 0 -4 9 -15
22 -25 26 -19 83 -21 114 -4 12 7 24 9 28 6 5 -6 10 12 7 30 0 4 3 7 8 7 14 0
21 58 11 84 -13 36 -52 77 -67 72 -7 -3 -13 0 -13 6 0 7 -5 6 -15 -2 -10 -9
-15 -9 -15 -1 0 15 -9 13 -45 -8z"/>
<path d="M2120 2789 c0 -5 -4 -8 -9 -5 -9 6 -26 -22 -23 -36 1 -5 -4 -8 -10
-8 -9 0 -8 -4 2 -10 12 -8 12 -10 1 -10 -10 0 -11 -3 -2 -13 6 -8 8 -16 5 -19
-3 -3 7 -15 23 -25 31 -22 76 -37 67 -22 -3 5 2 9 10 9 9 0 16 5 16 11 0 5 5
7 10 4 12 -8 29 32 25 60 -5 39 -10 50 -30 62 -25 15 -85 17 -85 2z"/>
</g>
</svg>
